<mxfile host="app.diagrams.net" modified="2023-12-12T06:31:31.086Z" agent="Mozilla/5.0 (Macintosh; Intel Mac OS X 10_15_7) AppleWebKit/537.36 (KHTML, like Gecko) Chrome/118.0.0.0 Safari/537.36" version="21.8.1" etag="ViRlQGfZhQKURWvBeQXT" type="github">
  <diagram name="Page-1" id="RzNcLbMmKyP_g5sOaSQG">
    <mxGraphModel>
      <root>
        <mxCell id="0" />
        <mxCell id="1" parent="0" />
      </root>
    </mxGraphModel>
  </diagram>
</mxfile>
